<mxfile host="app.diagrams.net" modified="2023-12-03T18:00:04.750Z" agent="Mozilla/5.0 (Windows NT 10.0; Win64; x64) AppleWebKit/537.36 (KHTML, like Gecko) Chrome/119.0.0.0 Safari/537.36 Edg/119.0.0.0" etag="kFajCI_jtoNXK9qSLtKk" version="22.1.5" type="device">
  <diagram id="8ediIDu6ospOWKTTEV2v" name="Page-1">
    <mxGraphModel dx="986" dy="506" grid="1" gridSize="10" guides="1" tooltips="1" connect="1" arrows="1" fold="1" page="1" pageScale="1" pageWidth="827" pageHeight="1169" math="0" shadow="0">
      <root>
        <mxCell id="0" />
        <mxCell id="1" parent="0" />
        <mxCell id="vf15FfeDWeOYkb1njN2Z-1" value="Habitación" style="swimlane;whiteSpace=wrap;html=1;" parent="1" vertex="1">
          <mxGeometry x="510" y="70" width="250" height="500" as="geometry" />
        </mxCell>
        <mxCell id="vf15FfeDWeOYkb1njN2Z-2" value="&lt;div style=&quot;text-align: left;&quot;&gt;&lt;span style=&quot;background-color: initial;&quot;&gt;_id: int&lt;/span&gt;&lt;/div&gt;&lt;div style=&quot;text-align: left;&quot;&gt;&lt;span style=&quot;background-color: initial;&quot;&gt;costo_noche: int, double&lt;/span&gt;&lt;/div&gt;&lt;div style=&quot;text-align: left;&quot;&gt;&lt;span style=&quot;background-color: initial;&quot;&gt;tipo: id_tipo_habitacion&lt;/span&gt;&lt;/div&gt;&lt;div style=&quot;text-align: left;&quot;&gt;&lt;span style=&quot;background-color: initial;&quot;&gt;consumos:&amp;nbsp;&amp;nbsp;&lt;/span&gt;&lt;/div&gt;" style="text;html=1;align=center;verticalAlign=middle;resizable=0;points=[];autosize=1;strokeColor=none;fillColor=none;" parent="vf15FfeDWeOYkb1njN2Z-1" vertex="1">
          <mxGeometry x="20" y="25" width="150" height="70" as="geometry" />
        </mxCell>
        <mxCell id="vf15FfeDWeOYkb1njN2Z-22" value="Consumos []" style="swimlane;whiteSpace=wrap;html=1;" parent="vf15FfeDWeOYkb1njN2Z-1" vertex="1">
          <mxGeometry x="30" y="90" width="195" height="105" as="geometry" />
        </mxCell>
        <mxCell id="vf15FfeDWeOYkb1njN2Z-23" value="&lt;div style=&quot;text-align: left;&quot;&gt;&lt;/div&gt;&lt;div style=&quot;text-align: left;&quot;&gt;_id: int&lt;/div&gt;&lt;div style=&quot;text-align: left;&quot;&gt;servicio: id_servicio&lt;/div&gt;&lt;div style=&quot;text-align: left;&quot;&gt;cliente: string&lt;/div&gt;&lt;div style=&quot;text-align: left;&quot;&gt;fecha: string&lt;/div&gt;&lt;div style=&quot;text-align: left;&quot;&gt;hora: string&lt;/div&gt;" style="text;html=1;align=center;verticalAlign=middle;resizable=0;points=[];autosize=1;strokeColor=none;fillColor=none;" parent="vf15FfeDWeOYkb1njN2Z-22" vertex="1">
          <mxGeometry x="-1.25" y="20" width="130" height="90" as="geometry" />
        </mxCell>
        <mxCell id="vf15FfeDWeOYkb1njN2Z-14" value="Reservas []" style="swimlane;whiteSpace=wrap;html=1;" parent="vf15FfeDWeOYkb1njN2Z-1" vertex="1">
          <mxGeometry x="30" y="230" width="197.5" height="250" as="geometry" />
        </mxCell>
        <mxCell id="vf15FfeDWeOYkb1njN2Z-15" value="codigo: int&lt;br&gt;fecha_entrada: string&lt;br&gt;fecha_salida: string&lt;br&gt;estado: enum&lt;br&gt;num_huespedes: int&lt;br&gt;cliente:" style="text;html=1;align=left;verticalAlign=middle;resizable=0;points=[];autosize=1;strokeColor=none;fillColor=none;" parent="vf15FfeDWeOYkb1njN2Z-14" vertex="1">
          <mxGeometry x="10" y="25" width="140" height="100" as="geometry" />
        </mxCell>
        <mxCell id="9lttUXyH118YigEZUfOc-1" value="Cliente" style="swimlane;whiteSpace=wrap;html=1;" parent="vf15FfeDWeOYkb1njN2Z-14" vertex="1">
          <mxGeometry x="10" y="125" width="170" height="90" as="geometry" />
        </mxCell>
        <mxCell id="9lttUXyH118YigEZUfOc-2" value="num_documento: string&lt;br&gt;tipo_documento: enum&lt;br&gt;nombre: string&lt;br&gt;&lt;div style=&quot;&quot;&gt;&lt;span style=&quot;background-color: initial;&quot;&gt;correo: string&lt;/span&gt;&lt;/div&gt;" style="text;html=1;strokeColor=none;fillColor=none;align=left;verticalAlign=middle;whiteSpace=wrap;rounded=0;" parent="9lttUXyH118YigEZUfOc-1" vertex="1">
          <mxGeometry x="10" y="40" width="140" height="30" as="geometry" />
        </mxCell>
        <mxCell id="9lttUXyH118YigEZUfOc-3" value="reservas:" style="text;html=1;strokeColor=none;fillColor=none;align=center;verticalAlign=middle;whiteSpace=wrap;rounded=0;" parent="vf15FfeDWeOYkb1njN2Z-1" vertex="1">
          <mxGeometry x="30" y="200" width="60" height="30" as="geometry" />
        </mxCell>
        <mxCell id="vf15FfeDWeOYkb1njN2Z-5" value="Tipo habitación" style="swimlane;whiteSpace=wrap;html=1;" parent="1" vertex="1">
          <mxGeometry x="270" y="70" width="190" height="220" as="geometry" />
        </mxCell>
        <mxCell id="vf15FfeDWeOYkb1njN2Z-6" value="&lt;div style=&quot;text-align: left;&quot;&gt;_id: int&lt;/div&gt;&lt;div style=&quot;text-align: left;&quot;&gt;nombre: string&lt;/div&gt;&lt;div style=&quot;text-align: left;&quot;&gt;capacidad: int&lt;/div&gt;&lt;div style=&quot;text-align: left;&quot;&gt;dotacion_incluida:&lt;/div&gt;" style="text;html=1;align=center;verticalAlign=middle;resizable=0;points=[];autosize=1;strokeColor=none;fillColor=none;" parent="vf15FfeDWeOYkb1njN2Z-5" vertex="1">
          <mxGeometry x="15" y="40" width="120" height="70" as="geometry" />
        </mxCell>
        <mxCell id="vf15FfeDWeOYkb1njN2Z-3" value="Dotaciones []" style="swimlane;whiteSpace=wrap;html=1;" parent="vf15FfeDWeOYkb1njN2Z-5" vertex="1">
          <mxGeometry x="15" y="120" width="160" height="80" as="geometry" />
        </mxCell>
        <mxCell id="vf15FfeDWeOYkb1njN2Z-4" value="_id: int&lt;br&gt;nombre: string&lt;br&gt;cantidad: int" style="text;html=1;align=left;verticalAlign=middle;resizable=0;points=[];autosize=1;strokeColor=none;fillColor=none;" parent="vf15FfeDWeOYkb1njN2Z-3" vertex="1">
          <mxGeometry x="10" y="20" width="100" height="60" as="geometry" />
        </mxCell>
        <mxCell id="vf15FfeDWeOYkb1njN2Z-16" value="Servicios" style="swimlane;whiteSpace=wrap;html=1;" parent="1" vertex="1">
          <mxGeometry x="30" y="70" width="210" height="290" as="geometry" />
        </mxCell>
        <mxCell id="vf15FfeDWeOYkb1njN2Z-17" value="_id: int&lt;br&gt;nombre: string&lt;br&gt;tipo_cobro: enum&lt;br&gt;precio: int, double&lt;br&gt;capacidad: int&lt;br&gt;estilo: string&lt;br&gt;costo_adicional: int, double&lt;br&gt;productos:" style="text;html=1;align=left;verticalAlign=middle;resizable=0;points=[];autosize=1;strokeColor=none;fillColor=none;" parent="vf15FfeDWeOYkb1njN2Z-16" vertex="1">
          <mxGeometry x="10" y="30" width="170" height="130" as="geometry" />
        </mxCell>
        <mxCell id="vf15FfeDWeOYkb1njN2Z-20" value="Productos []" style="swimlane;whiteSpace=wrap;html=1;" parent="vf15FfeDWeOYkb1njN2Z-16" vertex="1">
          <mxGeometry x="10" y="160" width="170" height="95" as="geometry" />
        </mxCell>
        <mxCell id="vf15FfeDWeOYkb1njN2Z-21" value="_id: int&lt;br&gt;nombre: string&lt;br&gt;precio: int, double" style="text;html=1;align=left;verticalAlign=middle;resizable=0;points=[];autosize=1;strokeColor=none;fillColor=none;" parent="vf15FfeDWeOYkb1njN2Z-20" vertex="1">
          <mxGeometry x="10" y="20" width="120" height="60" as="geometry" />
        </mxCell>
      </root>
    </mxGraphModel>
  </diagram>
</mxfile>
